<svg version="1.1" id="Layer_1" xmlns="http://www.w3.org/2000/svg" x="0" y="0" viewBox="0 0 338 82" xml:space="preserve"><style>.st0{fill:#aa182c}.st1{fill:#231f20}</style><path class="st0" d="M119.9 52.6c-.3.1-.6.3-1 .4-.8.1-1.9.2-3.1.3-.6 1.1-1 2.1-1.4 3.2 1.4 0 2.8-.1 4-.2 0 .2-.3.7-.4.7-.8.2-1.8.3-3.9.5-.4 1.2-.8 2.3-.9 3 .1.1.3.3.4.3h1c.9 0 2.6-.2 3.7-.5 0 .3-.2.7-.5.8-1.3.4-3.8.8-5.5.8-.3-.1-.6-.5-.8-.8.3-1.1.8-2.5 1.6-4.4.4-1 1-2.4 1.4-3.3-.3 0-.9.1-1.3.1 0-.3.4-.7.7-.8.1-.1 1.2-.2 1.5-.3 1.6-.1 3.4-.1 4.8-.2-.1.1-.2.3-.3.4zm5.4 2.6c.2 0 .6.1.8.3-.9.6-2.1 1.4-3.3 2.5.6 1.1 1.1 2.2 1.4 3-.3.4-.8.6-1.2.6-.2-.9-.5-1.7-1.1-2.7-1.3 1.3-2.4 2.6-3 3.6-.3.1-.6.1-.8.1-.2-.2-.3-.4-.3-.6 1-1.1 2.3-2.5 3.7-3.8-.5-.8-1.1-1.6-1.5-1.8 0-.3.2-.7.4-.9.2-.1.5-.2.7-.2.4.5.9 1.3 1.3 2 1.4-1.1 2-1.4 2.9-2.1zm2.2 2.6c-.5.7-.8 1.6-.8 2.2 0 .4.3.7.7.7.6 0 1.3-.6 2.5-1.9.1.1.2.3.2.6-1.3 1.5-2.6 2.5-3.7 2.5-.6 0-1.1-.3-1.1-1.3 0-1.8 2.1-4.6 4.1-5.6.2 0 .6.1.7.1.2.2.3.3.4.6 0 .2-.1.4-.2.5-.2.1-.6.3-.8.3-.2-.1-.3-.5-.6-.5-.3.3-.9 1.1-1.4 1.8zm7.1-2.8c.8 0 1.6.2 1.6.9 0 1.1-1.6 2.1-3.7 2.1-.3.8-.5 1.4-.5 2 0 .4 0 .9.5.9.8 0 1.9-.9 2.6-1.5.2.2.2.4.2.7-.8.7-2.6 1.8-3.6 1.8-.7 0-1.1-.4-1.1-1.1 0-1.7 1.5-4.3 3.1-5.6.2-.1.6-.2.9-.2zm-1.8 2.3c1 0 2.2-.3 2.2-1.1 0-.4-.3-.5-.9-.5-.4.3-.9.9-1.3 1.6zm5.5-2.1c.2.1.3.2.4.3 0 .2-.2.8-.4 1.2 0 .1.1.1.2.1.8-.8 1.9-1.5 2.4-1.5.3 0 .8.5.8 1.3 0 2.3-2.7 5.2-4 5.2-.2 0-.8-.1-1.2-.4-1 2.4-1.7 4.5-1.5 5.4-.2.2-.7.5-1 .5-.1-.1-.5-.2-.5-.4.2-.9.6-2.1 2.1-5.7 1-2.4 1.5-3.7 1.8-5 0-.1.1-.3 0-.5.2-.2.6-.5.9-.5zm-.4 5.8c.6 0 2.5-1.9 2.5-3.8 0-.5-.2-.6-.4-.6-.3 0-1.6.9-2.3 2.1-.2.3-.3.5-.7 1.6.3.4.7.7.9.7zm8.8-9.4c.2.1.4.3.5.5-.5.8-1.2 2.3-1.7 3.3.5 0 1.5 0 2.2-.1 0 .1-.2.4-.3.6-.7.2-1.5.3-2.3.4-.9 2.2-1.2 3.2-1.2 3.8 0 .3.1.4.2.4.4 0 1.1-.4 2-1.1.1.2.2.4.2.7-1.2.9-2.6 1.8-3.2 1.8-.3 0-.5-.3-.5-.8 0-.7.5-2.4 1.4-4.6h-1.3c0-.2.2-.5.3-.6.4-.1.9-.2 1.4-.3.5-1.1 1.3-3.1 1.3-3.3.1-.4.6-.6 1-.7zm.4 9.2c0-.8.5-2.2 1.2-4.2 0-.1.1-.4 0-.7.3-.2.7-.4 1-.5.2 0 .4.3.5.5-1.2 2.3-1.5 3.3-1.5 3.9 0 .3.1.5.3.5.2 0 .8-.3 1.2-.7.1.1.2.4.2.6-1.2.9-2.1 1.3-2.4 1.3-.3.1-.5 0-.5-.7zm4.5-8.8c0 .2-.3.9-1 1.2-.4-.2-.6-.6-.6-.8 0-.1.5-1.1 1.2-1.1.1.2.4.6.4.7zm2.7 3.7c.3-.3.8-.6 1.1-.6.3.1.6.4.6 1.1 0 2.3-2.6 5.5-4.3 5.5-.7 0-1.1-.6-1.1-1.4 0-2.1 2.2-4.4 3-5 .3.1.5.2.7.4zm-2.4 4c0 .8.3.9.7.9.8 0 2.2-2.2 2.2-3.7 0-.6-.3-.9-.7-1-1.2.8-2.2 2.5-2.2 3.8zm6.2-4.2h.9v.4c0 .5-.3 1.7-.8 3.1 0 .1.1.1.2.1 2.2-2.4 3.8-3.6 4.4-3.6.3 0 .4.3.4.8 0 .9-1.1 2.9-1.1 3.8 0 .3.1.5.5.7 0 .2-.1.4-.2.6-.3.1-.9.4-1.2.4-.3 0-.4-.2-.4-.6 0-1.1 1-3.1 1-3.6 0-.3-.1-.3-.1-.3-.3 0-2 1.4-3.3 3-.2.3-.5.8-.7 1-.2.2-.6.3-.9.3-.2 0-.4-.1-.5-.2.7-1.6 1.3-3.5 1.3-4.3 0-.3 0-.6-.2-.8.1-.5.4-.6.7-.8zm11.1.1l.6-.3c.2.1.3.1.5.3-.6 1.3-1.6 3.5-1.6 4.7 0 .3.1.4.2.4.2 0 .7-.3 1-.6.1.1.1.4.2.5-.5.4-1.8 1.3-2.3 1.3-.2 0-.4-.2-.4-.6 0-.3.1-1.3.4-2 0-.1-.1-.1-.2 0-1.3 1.4-2.6 2.5-3.5 2.5-.2 0-.4-.2-.4-.7 0-1.4.9-3.5 3.1-5 .5-.4 1.2-.7 1.6-.7.2-.2.5 0 .8.2zm-4 4.3c0 .2 0 .3.2.3.6 0 2.1-1.3 3.3-3.7-.1-.2-.5-.6-.7-.6-.7.1-2.8 2.4-2.8 4zm10.5-10.3c.1 0 .3.4.3.4-.7 1.4-2 4.3-3 6.9-.7 1.8-.7 2.5-.7 3.3 0 .3 0 .5.1.8 0 .2-.1.3-.2.5-.3.2-.8.3-1.1.4-.2-.1-.3-.3-.3-.6 0-1.3.5-2.9 1.6-5.9 1.1-2.7 1.9-4.7 2-5.3.5-.5 1.1-.5 1.3-.5zm6.7 5.7c.1.2.1.4.1.5-.1.2-.4.4-.8.6-.2-.1-.7-.5-1-.5-.2 0-.3.1-.4.1-.4.3-.7.8-.7 1.1 0 .3.1.4 1 .5.9.1 1.4.3 1.4 1 0 1.4-2 3.1-4 3.1-1 0-1.3-.2-1.3-.5 0-.4.1-.8.6-1.8h.3c.2 0 .3 0 .4.1-.1.3-.3.8-.3 1 0 .3.2.4.7.4 1.2 0 2.1-.9 2.1-1.8 0-.3-.2-.4-1.1-.5-.9-.1-1.2-.2-1.2-.8 0-.9 1.7-2.9 2.8-2.9.5.1 1.2.3 1.4.4zm4.4-.3c.8 0 1.6.2 1.6.9 0 1.1-1.6 2.1-3.7 2.1-.3.8-.5 1.4-.5 2 0 .4 0 .9.5.9.8 0 1.9-.9 2.6-1.5.2.2.2.4.2.7-.8.7-2.6 1.8-3.6 1.8-.7 0-1.1-.4-1.1-1.1 0-1.7 1.5-4.3 3.1-5.6.2-.1.6-.2.9-.2zm-1.8 2.3c1 0 2.2-.3 2.2-1.1 0-.4-.3-.5-.9-.5-.4.3-.9.9-1.3 1.6zm5.3 2.6c-.1.2-.5.9-.8 1.5-.2.1-.5.3-.7.4-.3 0-.5-.1-.6-.3.8-1.8 1.4-3.7 1.4-4.4 0-.5-.1-.9-.2-1.1.3-.5.7-.7 1.4-.7.1.3.1.5.1.8 0 .4-.1 1-.4 1.8-.1.1.1.1.2.1 1.6-2.1 2.9-3.3 3.4-3.3.2.1.6.3.9.5 0 .2-.1.7-.2.9-.2.2-.6.3-.8.3-.2-.1-.3-.2-.5-.4-.4.2-1.7 1.4-3.2 3.9zm6.4-3.8c0 .7-.3 2-.3 2.9 0 .2 0 .4.1.5 0 .1.1 0 .2 0 1.1-1.8 2.8-3.4 4.2-4.4.3.1.5.2.7.3-2.1 1.4-3.8 3.4-4.6 5.6-.3.3-.9.6-1.3.6-.1-.4-.3-1-.3-2.2 0-1.2.2-2.3.2-2.6 0-.3 0-.5-.1-.8.1-.2.6-.6.8-.7.3 0 .5.1.6.2v.6zm3.7 4.7c0-.8.5-2.2 1.2-4.2 0-.1.1-.4 0-.7.3-.2.7-.4 1-.5.2 0 .4.3.5.5-1.2 2.3-1.5 3.3-1.5 3.9 0 .3.1.5.3.5.2 0 .8-.3 1.2-.7.1.1.2.4.2.6-1.2.9-2.1 1.3-2.4 1.3-.3.1-.5 0-.5-.7zM205 52c0 .2-.3.9-1 1.2-.4-.2-.6-.6-.6-.8 0-.1.5-1.1 1.2-1.1.1.2.4.6.4.7zm.9 5.8c-.5.7-.8 1.6-.8 2.2 0 .4.3.7.7.7.6 0 1.3-.6 2.5-1.9.1.1.2.3.2.6-1.3 1.5-2.6 2.5-3.7 2.5-.6 0-1.1-.3-1.1-1.3 0-1.8 2.1-4.6 4.1-5.6.2 0 .6.1.7.1.2.2.3.3.4.6 0 .2-.1.4-.2.5-.2.1-.6.3-.8.3-.2-.1-.3-.5-.6-.5-.3.3-.9 1.1-1.4 1.8zM213 55c.8 0 1.6.2 1.6.9 0 1.1-1.6 2.1-3.7 2.1-.3.8-.5 1.4-.5 2 0 .4 0 .9.5.9.8 0 1.9-.9 2.6-1.5.2.2.2.4.2.7-.8.7-2.6 1.8-3.6 1.8-.7 0-1.1-.4-1.1-1.1 0-1.7 1.5-4.3 3.1-5.6.2-.1.6-.2.9-.2zm-1.8 2.3c1 0 2.2-.3 2.2-1.1 0-.4-.3-.5-.9-.5-.4.3-.9.9-1.3 1.6zm4.5 3.4c-.1.5-.3.8-.8 1.1-.5 0-.8-.4-.9-.8.2-.5.5-1 .9-1.1.3-.1.8.2.8.8zm13.4-8.1c-.3.1-.6.3-1 .4-.8.1-1.9.2-3.1.3-.6 1.1-1 2.1-1.4 3.2 1.4 0 2.8-.1 4-.2 0 .2-.3.7-.4.7-.8.2-1.8.3-3.9.5-.4 1.2-.8 2.3-.9 3 .1.1.3.3.4.3h1c.9 0 2.6-.2 3.7-.5 0 .3-.2.7-.5.8-1.3.4-3.8.8-5.5.8-.3-.1-.6-.5-.8-.8.3-1.1.8-2.5 1.6-4.4.4-1 1-2.4 1.4-3.3-.3 0-.9.1-1.3.1 0-.3.4-.7.7-.8.1-.1 1.2-.2 1.5-.3 1.6-.1 3.4-.1 4.8-.2-.1.1-.2.3-.3.4zm5.5 2.6c.2 0 .6.1.8.3-.9.6-2.1 1.4-3.3 2.5.6 1.1 1.1 2.2 1.4 3-.3.4-.8.6-1.2.6-.2-.9-.5-1.7-1.1-2.7-1.3 1.3-2.4 2.6-3 3.6-.3.1-.6.1-.8.1-.2-.2-.3-.4-.3-.6 1-1.1 2.3-2.5 3.7-3.8-.5-.8-1.1-1.6-1.5-1.8 0-.3.2-.7.4-.9.2-.1.5-.2.7-.2.4.5.9 1.3 1.3 2 1.3-1.1 1.9-1.4 2.9-2.1zm4.8-3.6c.2.1.4.3.5.5-.5.8-1.2 2.3-1.7 3.3.5 0 1.5 0 2.2-.1 0 .1-.2.4-.3.6-.7.2-1.5.3-2.3.4-.9 2.2-1.2 3.2-1.2 3.8 0 .3.1.4.2.4.4 0 1.1-.4 2-1.1.1.2.2.4.2.7-1.2.9-2.6 1.8-3.2 1.8-.3 0-.5-.3-.5-.8 0-.7.5-2.4 1.4-4.6h-1.3c0-.2.2-.5.3-.6.4-.1.9-.2 1.4-.3.5-1.1 1.3-3.1 1.3-3.3.1-.4.6-.6 1-.7zm2.1 8.3c-.1.2-.5.9-.8 1.5-.2.1-.5.3-.7.4-.3 0-.5-.1-.6-.3.8-1.8 1.4-3.7 1.4-4.4 0-.5-.1-.9-.2-1.1.3-.5.7-.7 1.4-.7.1.3.1.5.1.8 0 .4-.1 1-.4 1.8-.1.1.1.1.2.1 1.6-2.1 2.9-3.3 3.4-3.3.2.1.6.3.9.5 0 .2-.1.7-.2.9-.2.2-.6.3-.8.3-.2-.1-.3-.2-.5-.4-.4.2-1.6 1.4-3.2 3.9zm9-4.3l.6-.3c.2.1.3.1.5.3-.6 1.3-1.6 3.5-1.6 4.7 0 .3.1.4.2.4.2 0 .7-.3 1-.6.1.1.1.4.2.5-.5.4-1.8 1.3-2.3 1.3-.2 0-.4-.2-.4-.6 0-.3.1-1.3.4-2 0-.1-.1-.1-.2 0-1.3 1.4-2.6 2.5-3.5 2.5-.2 0-.4-.2-.4-.7 0-1.4.9-3.5 3.1-5 .5-.4 1.2-.7 1.6-.7.2-.2.5 0 .8.2zm-4 4.3c0 .2 0 .3.2.3.6 0 2.1-1.3 3.3-3.7-.1-.2-.5-.6-.7-.6-.7.1-2.8 2.4-2.8 4zm9.4-4.2c.3-.3.8-.6 1.1-.6.3.1.6.4.6 1.1 0 2.3-2.6 5.5-4.3 5.5-.7 0-1.1-.6-1.1-1.4 0-2.1 2.2-4.4 3-5 .2.1.5.2.7.4zm-2.5 4c0 .8.3.9.7.9.8 0 2.2-2.2 2.2-3.7 0-.6-.3-.9-.7-1-1.2.8-2.2 2.5-2.2 3.8zm6.3.2c-.1.2-.5.9-.8 1.5-.2.1-.5.3-.7.4-.3 0-.5-.1-.6-.3.8-1.8 1.4-3.7 1.4-4.4 0-.5-.1-.9-.2-1.1.3-.5.7-.7 1.4-.7.1.3.1.5.1.8 0 .4-.1 1-.4 1.8-.1.1.1.1.2.1 1.6-2.1 2.9-3.3 3.4-3.3.2.1.6.3.9.5 0 .2-.1.7-.2.9-.2.2-.6.3-.8.3-.2-.1-.3-.2-.5-.4-.4.2-1.7 1.4-3.2 3.9zm8.3-1.7c-1.7 1.9-3.4 3.4-4.3 3.4-.3 0-.6-.3-.6-.8 0-2.5 3.5-5.5 4.6-5.5.3 0 .8.4 1.2.8.7-1.7 1.7-4.1 2.2-5.7 0-.1.1-.2.1-.4.4-.2.9-.4 1.2-.4.1.2.3.6.2.8-.8 1.3-2.1 4.3-3.1 7.2-.3 1-.7 2.1-.6 3.2 0 .3.1.6.2.6 0 .2 0 .4-.1.5-.3.2-.9.6-1.2.6-.2-.2-.3-.7-.3-1.2 0-.8.2-1.9.6-3 .1-.1-.1-.1-.1-.1zm-3.4 1.4c0 .3.1.4.2.4.6 0 2.6-2 3.3-3.2-.1-.3-.5-.7-.8-.7-.6 0-2.7 2.2-2.7 3.5zm6 1.2c0-.8.5-2.2 1.2-4.2 0-.1.1-.4 0-.7.3-.2.7-.4 1-.5.2 0 .4.3.5.5-1.2 2.3-1.5 3.3-1.5 3.9 0 .3.1.5.3.5.2 0 .8-.3 1.2-.7.1.1.2.4.2.6-1.2.9-2.1 1.3-2.4 1.3-.3.1-.5 0-.5-.7zm4.5-8.8c0 .2-.3.9-1 1.2-.4-.2-.6-.6-.6-.8 0-.1.5-1.1 1.2-1.1.2.2.4.6.4.7zm.8 3.5h.9v.4c0 .5-.3 1.7-.8 3.1 0 .1.1.1.2.1 2.2-2.4 3.8-3.6 4.4-3.6.3 0 .4.3.4.8 0 .9-1.1 2.9-1.1 3.8 0 .3.1.5.5.7 0 .2-.1.4-.2.6-.3.1-.9.4-1.2.4-.3 0-.4-.2-.4-.6 0-1.1 1-3.1 1-3.6 0-.3-.1-.3-.1-.3-.3 0-2 1.4-3.3 3-.2.3-.5.8-.7 1-.2.2-.6.3-.9.3-.2 0-.4-.1-.5-.2.7-1.6 1.3-3.5 1.3-4.3 0-.3 0-.6-.2-.8.1-.5.4-.6.7-.8zm11.1.1l.6-.3c.2.1.3.1.5.3-.6 1.3-1.6 3.5-1.6 4.7 0 .3.1.4.2.4.2 0 .7-.3 1-.6.1.1.1.4.2.5-.5.4-1.8 1.3-2.3 1.3-.2 0-.4-.2-.4-.6 0-.3.1-1.3.4-2 0-.1-.1-.1-.2 0-1.3 1.4-2.6 2.5-3.5 2.5-.2 0-.4-.2-.4-.7 0-1.4.9-3.5 3.1-5 .5-.4 1.2-.7 1.6-.7.2-.2.5 0 .8.2zm-4 4.3c0 .2 0 .3.2.3.6 0 2.1-1.3 3.3-3.7-.1-.2-.5-.6-.7-.6-.7.1-2.8 2.4-2.8 4zm7.5 0c-.1.2-.5.9-.8 1.5-.2.1-.5.3-.7.4-.3 0-.5-.1-.6-.3.8-1.8 1.4-3.7 1.4-4.4 0-.5-.1-.9-.2-1.1.3-.5.7-.7 1.4-.7.1.3.1.5.1.8 0 .4-.1 1-.4 1.8-.1.1.1.1.2.1 1.6-2.1 2.9-3.3 3.4-3.3.2.1.6.3.9.5 0 .2-.1.7-.2.9-.2.2-.6.3-.8.3-.2-.1-.3-.2-.5-.4-.4.2-1.7 1.4-3.2 3.9z"/><path class="st0" d="M300.3 54.8c.2.1.4.1.4.2-.8 1.7-1.8 3.8-3.6 6.5-1.9 2.9-3.9 5-5.2 5.9-.4 0-.8-.1-1-.2-.1-.2-.1-.3-.1-.5 1.7-1 4.1-3.1 5.5-5.5-.2-1.5-.7-4.6-1.4-5.1 0-.2.1-.4.3-.6.2-.1.6-.2 1-.2.3.5.7 2.8 1 4.6.8-1.3 1.9-3.8 2.2-4.7.4-.1.7-.3.9-.4zm5.6.4c.2.1.3.2.4.3 0 .2-.2.8-.4 1.2 0 .1.1.1.2.1.8-.8 1.9-1.5 2.4-1.5.3 0 .8.5.8 1.3 0 2.3-2.7 5.2-4 5.2-.2 0-.8-.1-1.2-.4-1 2.4-1.7 4.5-1.5 5.4-.2.2-.7.5-1 .5-.1-.1-.5-.2-.5-.4.2-.9.6-2.1 2.1-5.7 1-2.4 1.5-3.7 1.8-5 0-.1.1-.3 0-.5.2-.2.6-.5.9-.5zm-.4 5.8c.6 0 2.5-1.9 2.5-3.8 0-.5-.2-.6-.4-.6s-1.6.9-2.3 2.1c-.2.3-.3.5-.7 1.6.3.4.7.7.9.7zm8.1-6c.8 0 1.6.2 1.6.9 0 1.1-1.6 2.1-3.7 2.1-.3.8-.5 1.4-.5 2 0 .4 0 .9.5.9.8 0 1.9-.9 2.6-1.5.2.2.2.4.2.7-.8.7-2.6 1.8-3.6 1.8-.7 0-1.1-.4-1.1-1.1 0-1.7 1.5-4.3 3.1-5.6.2-.1.6-.2.9-.2zm-1.8 2.3c1 0 2.2-.3 2.2-1.1 0-.4-.3-.5-.9-.5-.4.3-.9.9-1.3 1.6zm7-1.6c.3-.3.8-.6 1.1-.6.3.1.6.4.6 1.1 0 2.3-2.6 5.5-4.3 5.5-.7 0-1.1-.6-1.1-1.4 0-2.1 2.2-4.4 3-5 .2.1.5.2.7.4zm-2.5 4c0 .8.3.9.7.9.8 0 2.2-2.2 2.2-3.7 0-.6-.3-.9-.7-1-1.2.8-2.2 2.5-2.2 3.8zm6.8-4.5c.2.1.3.2.4.3 0 .2-.2.8-.4 1.2 0 .1.1.1.2.1.8-.8 1.9-1.5 2.4-1.5.3 0 .8.5.8 1.3 0 2.3-2.7 5.2-4 5.2-.2 0-.8-.1-1.2-.4-1 2.4-1.7 4.5-1.5 5.4-.2.2-.7.5-1 .5-.1-.1-.5-.2-.5-.4.2-.9.6-2.1 2.1-5.7 1-2.4 1.5-3.7 1.8-5 0-.1.1-.3 0-.5.2-.2.6-.5.9-.5zm-.4 5.8c.6 0 2.5-1.9 2.5-3.8 0-.5-.2-.6-.4-.6s-1.6.9-2.3 2.1c-.2.3-.3.5-.7 1.6.3.4.7.7.9.7zm9.1-11.4c.1 0 .3.4.3.4-.7 1.4-2 4.3-3 6.9-.7 1.8-.7 2.5-.7 3.3 0 .3 0 .5.1.8 0 .2-.1.3-.2.5-.3.2-.8.3-1.1.4-.2-.1-.3-.3-.3-.6 0-1.3.5-2.9 1.6-5.9 1.1-2.7 1.9-4.7 2-5.3.5-.5 1.1-.5 1.3-.5zM334 55c.8 0 1.6.2 1.6.9 0 1.1-1.6 2.1-3.7 2.1-.3.8-.5 1.4-.5 2 0 .4 0 .9.5.9.8 0 1.9-.9 2.6-1.5.2.2.2.4.2.7-.8.7-2.6 1.8-3.6 1.8-.7 0-1.1-.4-1.1-1.1 0-1.7 1.5-4.3 3.1-5.6.3-.1.6-.2.9-.2zm-1.8 2.3c1 0 2.2-.3 2.2-1.1 0-.4-.3-.5-.9-.5-.4.3-.9.9-1.3 1.6zm4.6 3.4c-.1.5-.3.8-.8 1.1-.5 0-.8-.4-.9-.8.2-.5.5-1 .9-1.1.2-.1.8.2.8.8z"/><path class="st1" d="M62.8 19.8H44.7V30h20.1v3.1H38.7V4.8h25.1v3.1H44.7v9h18.1v2.9zm4.8-1.5c0-2.1-.1-3.8-.3-5.5h5.4l.3 3.4h.1c1.7-1.9 5.5-3.8 11-3.8C88.8 12.3 96 14 96 21v12.2h-6V21.4c0-3.3-2-6-7.7-6-4 0-7.1 1.7-8.1 3.8-.3.5-.4 1.1-.4 1.7v12.2h-6.1V18.3zm33.5.8c0-2.4-.1-4.5-.3-6.4h5.3l.2 4h.3c1.5-2.7 5.2-4.5 9.2-4.5.7 0 1.2 0 1.7.1v3.5c-.6-.1-1.2-.1-2.1-.1-4.3 0-7.3 2-8.1 4.8-.1.5-.3 1.1-.3 1.7V33h-6V19.1zm53.1 13.3c-1.6.5-5.1 1.2-9.6 1.2-10.1 0-16.6-4.2-16.6-10.4 0-6.3 7-10.8 17.9-10.8 3.6 0 6.8.5 8.4 1.1l-1.4 2.9c-1.4-.5-3.7-1-7-1-7.7 0-11.8 3.5-11.8 7.7 0 4.7 5 7.6 11.6 7.6 3.5 0 5.7-.5 7.5-1l1 2.7zm2.3-29.1h6.1V16h.1c1-1.1 2.5-2 4.3-2.6 1.8-.6 3.9-1.1 6.2-1.1 4.5 0 11.7 1.7 11.7 8.7v12.1h-6.1V21.4c0-3.3-2-6.1-7.7-6.1-3.9 0-7 1.7-8.1 3.7-.3.5-.4 1.1-.4 1.8v12.3h-6.1V3.3zm33.4 15c0-2.1-.1-3.8-.3-5.5h5.3l.3 3.3h.2c1.9-1.9 5-3.7 10.5-3.7 4.6 0 8 1.7 9.5 4.1h.1c1-1.1 2.3-2 3.7-2.7 2-.9 4.2-1.4 7.4-1.4 4.4 0 11 1.8 11 8.8v12h-5.9V21.6c0-3.9-2.3-6.3-7.2-6.3-3.4 0-6.1 1.6-7.2 3.4-.3.5-.5 1.2-.5 1.9v12.6h-5.9V20.9c0-3.2-2.3-5.6-7-5.6-3.8 0-6.6 1.9-7.5 3.7-.3.5-.5 1.2-.5 1.8v12.3H190V18.3zm56.1 5.3c.1 5 5.4 7.1 11.5 7.1 4.3 0 7-.5 9.2-1.1l1 2.6c-2.1.6-5.8 1.3-11.1 1.3-10.3 0-16.4-4.2-16.4-10.3 0-6.1 5.9-11 15.7-11 10.9 0 13.8 5.8 13.8 9.6 0 .8-.1 1.3-.2 1.7H246zm17.8-2.6c.1-2.4-1.6-6-8.4-6-6.1 0-8.8 3.4-9.3 6h17.7zm8.6-2.7c0-2.1-.1-3.8-.3-5.5h5.4l.3 3.4h.1c1.7-1.9 5.5-3.8 11-3.8 4.6 0 11.8 1.7 11.8 8.7v12.2h-6.1V21.4c0-3.3-2-6-7.7-6-4 0-7.1 1.7-8.1 3.8-.3.5-.4 1.1-.4 1.7v12.2h-6.1V18.3zm40.5-10.4v4.9h8.7v2.8h-8.7v11c0 2.5 1.2 4 4.6 4 1.7 0 2.6-.1 3.5-.3l.3 2.8c-1.2.3-3 .5-5.4.5-2.8 0-5.1-.6-6.6-1.6-1.7-1.1-2.3-2.9-2.3-5.3V15.6h-5.2v-2.8h5.2V9l5.9-1.1zM50.8 48.3v-8.2h-3v-.7h3v-.7c0-.9.3-2 1.9-2.7 1.4-.6 3.3-.7 4.3-.7 1.1 0 1.9.1 2.6.2l-.6.7c-.5-.1-1.1-.2-2.2-.2-3.2 0-3.8 1.3-3.8 2.7v.7h4.7v.7H53v8.2h-2.2zm10.3-4.8c0 3.6 3.4 4.2 6.2 4.2 1.6 0 2.9-.1 3.7-.4l.5.6c-1.2.3-3 .4-4.6.4-5.4 0-8-1.8-8-4.5 0-2.8 2.8-4.6 7.3-4.6 4.9 0 6.2 2.2 6.2 3.7v.5H61.1zm8.9-.6c.1-2.2-2.4-2.9-4.2-2.9-2.9 0-4.4 1.5-4.7 2.9H70zm19.8-7.4v11c0 .4.2 1.5.2 1.8h-1.9l-.2-1.2h-.2c-.7.6-2.4 1.3-5.2 1.3-3.5 0-6.9-1.3-6.9-4.6 0-3.2 3.6-4.6 7.1-4.6 1.6 0 3.5.2 4.7 1.1h.1v-4.9h2.3zm-2.2 7.3c0-.2 0-.4-.1-.6-.2-1.2-2.2-2.2-4.4-2.2-3.8 0-5.1 1.9-5.1 3.9s1.4 3.9 4.8 3.9c1.4 0 3.6-.3 4.7-2 .1-.2.1-.4.1-.6v-2.4zm9.2.7c0 3.6 3.4 4.2 6.2 4.2 1.6 0 2.9-.1 3.7-.4l.5.6c-1.2.3-3 .4-4.6.4-5.4 0-8-1.8-8-4.5 0-2.8 2.8-4.6 7.3-4.6 4.9 0 6.2 2.2 6.2 3.7v.5H96.8zm8.9-.6c.1-2.2-2.4-2.9-4.2-2.9-2.9 0-4.4 1.5-4.7 2.9h8.9zm6.8-1.4c0-.7-.2-1.5-.2-2.1h2.1l.1 1.4h.1c.6-.8 2.8-1.6 5.3-1.6h.5v.9h-.4c-3.2 0-5 1.1-5.2 2.2-.1.3-.1.5-.1.8v5.2h-2.2v-6.8zm21.6 4.8c0 .6 0 1.4.2 2h-2l-.2-1h-.2c-.9.7-2.5 1.1-4.6 1.1-3 0-5.4-.9-5.4-2.4 0-2.1 4.5-3.1 10-3.2v-.3c0-1.5-.7-2.5-4.3-2.5-1.2 0-2.5.2-3.5.4l-.6-.6c.8-.3 2.7-.5 4.6-.5 3.3 0 6 .7 6 2.8v4.2zm-2.2-2.8c-1.9 0-7.7.1-7.7 2.4 0 1.3 1.8 1.8 3.4 1.8 2.1 0 3.7-.6 4.2-1.7.1-.2.1-.4.1-.6v-1.9zm8.3-8h2.2v12.8h-2.2V35.5zm27.6 12.6c-1 .2-2.4.4-4 .4-4.8 0-8.2-1.6-8.2-4.5 0-2.4 3-4.6 8.8-4.6 1.2 0 2.6.1 3.4.3l-.7.7c-.5-.1-1.6-.3-3-.3-4.4 0-6.1 2.1-6.1 3.9 0 2.4 2.4 3.8 6.3 3.8 1.1 0 2.1-.1 3.1-.3l.4.6zm3.8-6.6c0-.7-.2-1.5-.2-2.1h2.1l.1 1.4h.1c.6-.8 2.8-1.6 5.3-1.6h.5v.9h-.4c-3.2 0-5 1.1-5.2 2.2-.1.3-.1.5-.1.8v5.2h-2.2v-6.8zm11.3 2c0 3.6 3.4 4.2 6.2 4.2 1.6 0 2.9-.1 3.7-.4l.5.6c-1.2.3-3 .4-4.6.4-5.4 0-8-1.8-8-4.5 0-2.8 2.8-4.6 7.3-4.6 4.9 0 6.2 2.2 6.2 3.7v.5h-11.3zm8.9-.6c.1-2.2-2.4-2.9-4.2-2.9-2.9 0-4.4 1.5-4.7 2.9h8.9zm19.8-7.4v11c0 .4.2 1.5.2 1.8h-1.9l-.2-1.2h-.2c-.7.6-2.4 1.3-5.2 1.3-3.5 0-6.9-1.3-6.9-4.6 0-3.2 3.6-4.6 7.1-4.6 1.6 0 3.5.2 4.7 1.1h.1v-4.9h2.3zm-2.2 7.3c0-.2 0-.4-.1-.6-.2-1.2-2.2-2.2-4.5-2.2-3.8 0-5.1 1.9-5.1 3.9s1.4 3.9 4.8 3.9c1.4 0 3.6-.3 4.7-2 .1-.2.1-.4.1-.6v-2.4zm10.9-5.7c0 .4-.6.7-1.7.7-.9 0-1.6-.3-1.6-.7 0-.4.7-.7 1.6-.7 1.2.1 1.7.3 1.7.7zm-2.7 11.2v-8.9h2.2v8.9h-2.2zm11.1-10.8v1.9h4.7v.7h-4.7v6.1c0 1.2 1.1 1.6 2.6 1.6.6 0 1.1 0 1.5-.1l.3.6c-.6.1-1.2.1-2.2.1-1.3 0-2.5-.1-3.3-.5-.8-.4-1.1-.9-1.1-2v-5.8h-3.1v-.7h3.1v-1.5l2.2-.4zm29 8.6c0 1 .2 1.7.2 2.2h-2l-.2-.9h-.1c-.5.3-2.3 1.1-5 1.1-4 0-5.6-1.2-5.6-3.3v-5.8h2.2V45c0 1.5.6 2.8 3.8 2.8 3.1 0 4.3-1.1 4.4-1.6.1-.3.1-.5.1-.8v-6h2.2v6.7zm6-4.6c0-1.1-.2-1.4-.2-2.1h2l.1 1.1h.1c.9-.7 2.8-1.2 5.4-1.2 2.6 0 5.6.6 5.6 2.9v6.1h-2.2v-5.8c0-1.3-.6-2.5-4-2.5-2 0-3.9.6-4.5 1.9-.1.2-.1.5-.1.8v5.7h-2.2v-6.9zm21.8-4.4c0 .4-.6.7-1.7.7-.9 0-1.6-.3-1.6-.7 0-.4.7-.7 1.6-.7 1.1.1 1.7.3 1.7.7zm-2.8 11.2v-8.9h2.2v8.9h-2.2zm21.6-4.4c0 3.3-3.6 4.6-7.4 4.6-3.5 0-7.1-1.3-7.1-4.6s3.6-4.6 7.5-4.6c3.4 0 7 1.3 7 4.6zm-12.3 0c0 1.4.8 3.9 5 3.9 4.1 0 4.9-2.4 4.9-3.9 0-1.4-.8-3.9-5-3.9-4.1 0-4.9 2.4-4.9 3.9zm17.1-2.4c0-1.1-.2-1.4-.2-2.1h2l.1 1.1h.1c.9-.7 2.8-1.2 5.4-1.2 2.6 0 5.6.6 5.6 2.9v6.1h-2.2v-5.8c0-1.3-.6-2.5-4-2.5-2 0-3.9.6-4.5 1.9-.1.2-.1.5-.1.8v5.7h-2.2v-6.9z"/><path class="st0" d="M122.2 1c-2.7 0-5 2.2-5 5 0 2.7 2.2 5 5 5 2.7 0 5-2.2 5-5-.1-2.8-2.3-5-5-5zm1.8 3.5C122.4 3 120.7 3 120.7 3l1.4-.8s1 0 2 .7c1.1.7 2.1 2.1 1.6 3.6-.5 1.8-.2-.6-1.7-2z"/><path class="st1" d="M119.1 12.8h6.1v20.4h-6.1z"/><path class="st0" d="M64.4 70.6s-3.1-1.7-6 .9c0 0-.9.7-1.5 2 0 0-9.5-2.9-20.4-8.3 0 0-16.1-8-23.3-15.5 0 0-5-4.6-3-7.5 0 0 2-3.5 15.3-3.2 0 0 10.3.1 19.5 1.6l.4-1s-9.4-2.4-18.7-8.1c0 0-6.7-3.9-10.5-8.3 0 0-4.2-4.5 1.6-6.1 0 0 6.7-1.9 18.6-.4l.2-1.1S24.8 13 16.3 13.8c0 0-7.7.6-7.1 6 0 0 0 8.3 25.2 17.6 0 0-17.8-3.5-27.4-1.1 0 0-7.1 1.8-5.4 7.5 0 0 1.5 8.9 25.5 20.1 0 0 15.5 7.1 29.6 10.8 0 0-.8 5.5 4.9 6.4 0 0 4 .6 5.7-3.7-.1-.2 1.3-4.4-2.9-6.8zm1.7 5.6c-.7 2.2-.3-.5-2-2.1-1.8-1.7-3.7-1.7-3.7-1.7l1.6-.9s1.1 0 2.3.8c1.1.7 2.3 2.3 1.8 3.9z"/><path d="M60.3 72.4l1.6-.9s1.3.1 2.1.7 1.6 1.4 1.8 1.9c.2.6.4.8.3 1.5-.1.8-.3 1.3-.4 1.4-.1.1-.2 0-.2-.2-.1-.3-.5-1.5-1-2.1-.5-.6-.8-.9-1.3-1.2-.5-.3-1-.6-1.4-.8-.4-.2-.8-.2-1-.3h-.5zM120.7 3l1.4-.8s1.1.2 1.5.4c.4.2.8.4 1.4 1 .6.7.8 1.1.9 1.9.1.8 0 1-.1 1.4-.1.4-.2.4-.3.3-.1-.1-.3-.7-.4-.9-.1-.2-.3-.8-.6-1.1-.2-.3-.4-.6-.7-.8-.4-.3-.6-.5-1.3-.8-.4-.2-.7-.3-1-.4-.3-.2-.8-.2-.8-.2z" fill="#fff"/></svg>