<svg xmlns="http://www.w3.org/2000/svg" viewBox="0 0 30 30"><path d="M28.3 25.3s-1.4-.8-2.7.4c0 0-.4.3-.7.9 0 0-4.2-1.3-9-3.7 0 0-7.1-3.5-10.3-6.9 0 0-2.2-2-1.3-3.3 0 0 .9-1.5 6.8-1.4 0 0 4.6.1 8.6.7l.2-.4s-4.2-1.1-8.3-3.6c0 0-2.9-1.7-4.7-3.7 0 0-1.8-2 .7-2.7 0 0 3-.8 8.2-.2l.1-.4s-5.2-1.1-9-.8c0 0-3.4.3-3.1 2.6 0 0 0 3.7 11.1 7.8 0 0-7.9-1.6-12.1-.5 0 0-3.1.8-2.4 3.3 0 0 .6 4 11.3 8.9 0 0 6.8 3.1 13.1 4.8 0 0-.3 2.4 2.2 2.8 0 0 1.8.3 2.5-1.6 0-.1.6-1.9-1.2-3zm.7 2.5c-.3 1-.1-.2-.9-.9s-1.7-.8-1.7-.8l.7-.4s.5 0 1 .3c.6.4 1.2 1.1.9 1.8z" fill="#aa182c"/><path d="M26.5 26.1l.7-.4s.6.1.9.3c.4.2.7.6.8.9.1.2.2.3.1.7 0 .4-.1.6-.2.6-.1.1-.1 0-.1-.1s-.2-.6-.4-.9c-.2-.3-.4-.4-.6-.5-.2-.1-.4-.3-.6-.3-.2-.1-.3-.1-.4-.1 0-.2-.2-.2-.2-.2z" fill="#fff"/></svg>