
<svg xmlns="http://www.w3.org/2000/svg" xml:space="preserve" width="200px" height="208px" version="1.1" shape-rendering="geometricPrecision" text-rendering="geometricPrecision" image-rendering="optimizeQuality" fill-rule="evenodd" clip-rule="evenodd"
viewBox="0 0 200 208"
 xmlns:xlink="http://www.w3.org/1999/xlink">
 <g id="Layer_x0020_1">
  <metadata id="CorelCorpID_0Corel-Layer"/>
  <path fill="#1A4DBE" d="M94 25c0,9 0,13 4,22l26 51c6,9 7,22 4,33 -1,4 -2,7 -3,10 -1,1 -1,2 -1,2 -1,1 -1,1 -1,2 -1,-4 -3,-11 -5,-13 -2,-4 -4,-8 -6,-12l-31 -58c-1,-2 -2,-4 -2,-6 -1,-4 -2,-7 -3,-7 -1,4 -6,8 -6,27 0,14 8,27 15,39 1,2 2,4 3,6 1,3 3,6 5,10 1,2 2,3 3,5 3,5 5,10 7,16 3,9 3,19 0,28 -1,3 -3,9 -5,11 0,-7 -7,-18 -10,-24 -8,-15 -20,-37 -26,-50 -3,-7 -4,-14 -4,-22 -12,3 -27,9 -36,17 -15,12 -26,30 -16,51 2,3 5,8 8,11 5,5 15,13 21,16 11,4 14,7 27,10 10,2 21,4 32,4l13 0c25,-1 50,-8 69,-21 27,-20 29,-50 2,-71 -10,-8 -20,-12 -31,-16 -1,0 -4,-1 -5,-1 0,-11 -4,-19 -8,-26l-20 -38c-5,-10 -10,-17 -13,-28 -3,2 -7,16 -7,22z"/>
 </g>
</svg>
